Phish
Saratoga Performing Arts Center
Saratoga, New York
6/20/2010

Source: Schoeps CCM4V'S(din)>Sound Devices 722 (24/48)
FOB/DFC/KFC/ZFC/AARP OTS - Row ?, Seat , 7' High
DSP: Sound Devices 722>Sound Forge 9.0>CD Wave>flac(16)
Recorded By: Z-Man
Seeded By: Z-Man

Disc I 1st Set

01 *Brother
02 AC/DC Bag >
03 Back On The Train
04 Undermind
05 Cities
06 Banter By Trey
07 #Gotta Jibboo
08 Roggae
09 Sleep Again
10 Lawn Boy
11 Run Like An Antelope 

Disc II 2nd Set

01 Carini >
02 The Mango Song  
03 Wilson >
04 Drowned >
05 Swept Away > Steep
06 Makisupa Policeman

Disc II 2nd Set Con't

01 Piper >
02 Also Sprach Zarathustra >
03 You Enjoy Myself
Encore:
04 @Frankenstein

* With The Band's Children In A Tub On Stage For Father's Day
# With Tony Markellis On Bass And Mike Gordon On Rhythm Guitar
@ With Page Playing The Keytar

Flac Fingerprint 

phish2010-06-20d01t01.flac:a37d25fbd9e1fc74ac86cd165332808d
phish2010-06-20d01t02.flac:2ec44a516ec6c1ed6578e211ec7c79b6
phish2010-06-20d01t03.flac:7c59d89671b3502f202c595d6ade9c33
phish2010-06-20d01t04.flac:ed1faac99631ee23757092632d9dadb6
phish2010-06-20d01t05.flac:bb3a469345f9f32306a6d8a85e8eb189
phish2010-06-20d01t06.flac:fcc0715d3f0c943ecbe7d732bd97f51b
phish2010-06-20d01t07.flac:f8abda3d8783db924c33ed03e74337b8
phish2010-06-20d01t08.flac:69d85a6915d5700ea76d7309098e484e
phish2010-06-20d01t09.flac:a9d19e505b21ebdefd9aa7ced36093c4
phish2010-06-20d01t10.flac:c32626aa90cc9d73aed3c7c51c9518fa
phish2010-06-20d01t11.flac:b9c91dcb2c3b6e6ab601e02961c44979
phish2010-06-20d02t01.flac:74bdf5530cc452e5f08fb121e4d01171
phish2010-06-20d02t02.flac:805f5d272e291fce94d237d96ea77651
phish2010-06-20d02t03.flac:f7b63d5a66decaf415a96847d0c924d0
phish2010-06-20d02t04.flac:cadee484a1e4d280641815b137a92015
phish2010-06-20d02t05.flac:d9725a0ebb00bfb438af3e0252a311f2
phish2010-06-20d02t06.flac:b2e15b233251db0937b744cb1e3530cb
phish2010-06-20d03t01.flac:3dda74d1f95aec265b21bc6df35d73ce
phish2010-06-20d03t02.flac:cf50923185da078cd5f15269f8410ee7
phish2010-06-20d03t03.flac:7c25de13ca29145eac56c364f3301e32
phish2010-06-20d03t04.flac:5ae746b0e01a4ac7f36daca44e68a55c

Shntool 

    length     expanded size    cdr  WAVE problems  fmt   ratio  filename
     5:42.57       60462908 B   ---   --   ---xx   flac  0.5879  phish2010-06-20d01t01.flac
     6:29.36       68704316 B   ---   --   ---xx   flac  0.6007  phish2010-06-20d01t02.flac
     9:08.14       96700172 B   ---   --   ---xx   flac  0.5857  phish2010-06-20d01t03.flac
     7:30.18       79422380 B   ---   --   ---xx   flac  0.5731  phish2010-06-20d01t04.flac
     6:55.40       73300124 B   ---   --   ---xx   flac  0.5823  phish2010-06-20d01t05.flac
     1:27.09       15368012 B   ---   --   ---xx   flac  0.5140  phish2010-06-20d01t06.flac
    10:10.08      107622860 B   ---   --   ---xx   flac  0.6007  phish2010-06-20d01t07.flac
     9:38.72      102128588 B   ---   --   ---xx   flac  0.5726  phish2010-06-20d01t08.flac
     6:28.00       68443244 B   ---   --   ---xx   flac  0.5678  phish2010-06-20d01t09.flac
     3:03.37       32368268 B   ---   --   ---xx   flac  0.5128  phish2010-06-20d01t10.flac
    11:05.00      117306044 B   ---   --   ---xx   flac  0.5860  phish2010-06-20d01t11.flac
     8:13.55       87094604 B   ---   --   ---xx   flac  0.5941  phish2010-06-20d02t01.flac
     7:32.55       79862204 B   ---   --   ---xx   flac  0.5649  phish2010-06-20d02t02.flac
     4:30.55       47757404 B   ---   --   ---xx   flac  0.5959  phish2010-06-20d02t03.flac
    13:12.45      139814684 B   ---   --   ---xx   flac  0.6062  phish2010-06-20d02t04.flac
     5:13.59       55352012 B   ---   --   ---xx   flac  0.5241  phish2010-06-20d02t05.flac
     7:06.23       75200540 B   ---   --   ---xx   flac  0.5363  phish2010-06-20d02t06.flac
    10:02.14      106225772 B   ---   --   ---xx   flac  0.6136  phish2010-06-20d03t01.flac
     5:57.73       63146540 B   ---   --   ---xx   flac  0.5871  phish2010-06-20d03t02.flac
    16:34.73      175513340 B   ---   --   ---xx   flac  0.5628  phish2010-06-20d03t03.flac
     5:59.31       63400556 B   ---   --   ---xx   flac  0.6151  phish2010-06-20d03t04.flac
   162:03.24     1715194572 B                            0.5809  (21 files)




